<mxfile host="app.diagrams.net" modified="2024-04-03T05:28:25.484Z" agent="Mozilla/5.0 (Windows NT 10.0; Win64; x64) AppleWebKit/537.36 (KHTML, like Gecko) Chrome/123.0.0.0 Safari/537.36" etag="_wyzEqKrgBfG0jbgvVn-" version="24.2.1" type="google">
  <diagram name="Page-1" id="GUYqLY57Ul6kdWZ2RL6W">
    <mxGraphModel grid="0" page="1" gridSize="10" guides="1" tooltips="1" connect="1" arrows="1" fold="1" pageScale="1" pageWidth="850" pageHeight="1100" math="0" shadow="0">
      <root>
        <mxCell id="0" />
        <mxCell id="1" parent="0" />
        <mxCell id="7FCc9egp_vNC9qDsbCwZ-2" value="" style="rounded=0;whiteSpace=wrap;html=1;" vertex="1" parent="1">
          <mxGeometry x="-52" y="-21" width="1593" height="1196" as="geometry" />
        </mxCell>
        <object placeholders="1" c4Name="Hệ thống quản lý nhân sự" c4Type="SystemScopeBoundary" c4Application="Software System" label="&lt;font style=&quot;font-size: 16px&quot;&gt;&lt;b&gt;&lt;div style=&quot;text-align: left&quot;&gt;%c4Name%&lt;/div&gt;&lt;/b&gt;&lt;/font&gt;&lt;div style=&quot;text-align: left&quot;&gt;[%c4Application%]&lt;/div&gt;" id="rftGJOELewJcGDMippSY-2">
          <mxCell style="rounded=1;fontSize=11;whiteSpace=wrap;html=1;dashed=1;arcSize=20;fillColor=none;strokeColor=#666666;fontColor=#333333;labelBackgroundColor=none;align=left;verticalAlign=bottom;labelBorderColor=none;spacingTop=0;spacing=10;dashPattern=8 4;metaEdit=1;rotatable=0;perimeter=rectanglePerimeter;noLabel=0;labelPadding=0;allowArrows=0;connectable=0;expand=0;recursiveResize=0;editable=1;pointerEvents=0;absoluteArcSize=1;points=[[0.25,0,0],[0.5,0,0],[0.75,0,0],[1,0.25,0],[1,0.5,0],[1,0.75,0],[0.75,1,0],[0.5,1,0],[0.25,1,0],[0,0.75,0],[0,0.5,0],[0,0.25,0]];" vertex="1" parent="1">
            <mxGeometry x="200" y="110" width="1040" height="830" as="geometry" />
          </mxCell>
        </object>
        <mxCell id="rftGJOELewJcGDMippSY-41" style="rounded=0;orthogonalLoop=1;jettySize=auto;html=1;endArrow=none;endFill=0;" edge="1" parent="1" source="rftGJOELewJcGDMippSY-3" target="rftGJOELewJcGDMippSY-13">
          <mxGeometry relative="1" as="geometry" />
        </mxCell>
        <mxCell id="rftGJOELewJcGDMippSY-42" style="rounded=0;orthogonalLoop=1;jettySize=auto;html=1;endArrow=none;endFill=0;" edge="1" parent="1" source="rftGJOELewJcGDMippSY-3" target="rftGJOELewJcGDMippSY-17">
          <mxGeometry relative="1" as="geometry" />
        </mxCell>
        <mxCell id="SviylCHCDP7IlEOSbGpC-9" style="rounded=0;orthogonalLoop=1;jettySize=auto;html=1;entryX=0;entryY=0;entryDx=0;entryDy=0;endArrow=none;endFill=0;" edge="1" parent="1" source="rftGJOELewJcGDMippSY-3" target="SviylCHCDP7IlEOSbGpC-2">
          <mxGeometry relative="1" as="geometry" />
        </mxCell>
        <mxCell id="rftGJOELewJcGDMippSY-3" value="Quản lý" style="shape=umlActor;verticalLabelPosition=bottom;verticalAlign=top;html=1;" vertex="1" parent="1">
          <mxGeometry x="80" y="420" width="30" height="60" as="geometry" />
        </mxCell>
        <mxCell id="rftGJOELewJcGDMippSY-4" value="1. Quản lý hồ sơ nhân viên" style="ellipse;whiteSpace=wrap;html=1;fillColor=#C4DEFF;" vertex="1" parent="1">
          <mxGeometry x="365" y="260" width="145" height="80" as="geometry" />
        </mxCell>
        <mxCell id="rftGJOELewJcGDMippSY-5" value="1.1. Tạo nhân viên mới" style="ellipse;whiteSpace=wrap;html=1;fillColor=#fad9d5;strokeColor=#ae4132;" vertex="1" parent="1">
          <mxGeometry x="215" y="170" width="95" height="40" as="geometry" />
        </mxCell>
        <mxCell id="rftGJOELewJcGDMippSY-7" value="1.2. Sửa thông tin nhân viên" style="ellipse;whiteSpace=wrap;html=1;fillColor=#fad9d5;strokeColor=#ae4132;" vertex="1" parent="1">
          <mxGeometry x="350" y="130" width="100" height="50" as="geometry" />
        </mxCell>
        <mxCell id="rftGJOELewJcGDMippSY-9" value="1.3. Xóa nhân viên" style="ellipse;whiteSpace=wrap;html=1;fillColor=#fad9d5;strokeColor=#ae4132;" vertex="1" parent="1">
          <mxGeometry x="485" y="150" width="100" height="40" as="geometry" />
        </mxCell>
        <mxCell id="rftGJOELewJcGDMippSY-10" value="2. Quản lý chấm công" style="ellipse;whiteSpace=wrap;html=1;fillColor=#C4DEFF;" vertex="1" parent="1">
          <mxGeometry x="820" y="240" width="140" height="70" as="geometry" />
        </mxCell>
        <mxCell id="rftGJOELewJcGDMippSY-13" value="&lt;font style=&quot;vertical-align: inherit;&quot;&gt;&lt;font style=&quot;vertical-align: inherit;&quot;&gt;3. Quản lý phân ca&lt;/font&gt;&lt;/font&gt;" style="ellipse;whiteSpace=wrap;html=1;fillColor=#C4DEFF;" vertex="1" parent="1">
          <mxGeometry x="320" y="670" width="130" height="80" as="geometry" />
        </mxCell>
        <mxCell id="rftGJOELewJcGDMippSY-14" value="&lt;font style=&quot;vertical-align: inherit;&quot;&gt;&lt;font style=&quot;vertical-align: inherit;&quot;&gt;&amp;nbsp;3.1. Tạo bảng phân ca công việc&lt;/font&gt;&lt;/font&gt;" style="ellipse;whiteSpace=wrap;html=1;" vertex="1" parent="1">
          <mxGeometry x="220" y="790" width="100" height="50" as="geometry" />
        </mxCell>
        <mxCell id="rftGJOELewJcGDMippSY-17" value="&lt;font style=&quot;vertical-align: inherit;&quot;&gt;&lt;font style=&quot;vertical-align: inherit;&quot;&gt;4. Quản lý lương&lt;/font&gt;&lt;/font&gt;" style="ellipse;whiteSpace=wrap;html=1;fillColor=#C4DEFF;" vertex="1" parent="1">
          <mxGeometry x="800" y="730" width="140" height="70" as="geometry" />
        </mxCell>
        <mxCell id="rftGJOELewJcGDMippSY-19" value="Đăng nhập" style="ellipse;whiteSpace=wrap;html=1;fillColor=#d0cee2;strokeColor=#56517e;" vertex="1" parent="1">
          <mxGeometry x="640" y="430" width="140" height="70" as="geometry" />
        </mxCell>
        <mxCell id="rftGJOELewJcGDMippSY-28" value="&amp;lt;&amp;lt;extend&amp;gt;&amp;gt;" style="html=1;verticalAlign=bottom;labelBackgroundColor=none;endArrow=open;endFill=0;dashed=1;rounded=0;exitX=0.5;exitY=1;exitDx=0;exitDy=0;" edge="1" parent="1" source="rftGJOELewJcGDMippSY-5" target="rftGJOELewJcGDMippSY-4">
          <mxGeometry width="160" relative="1" as="geometry">
            <mxPoint x="415" y="330" as="sourcePoint" />
            <mxPoint x="575" y="330" as="targetPoint" />
          </mxGeometry>
        </mxCell>
        <mxCell id="rftGJOELewJcGDMippSY-29" value="&amp;lt;&amp;lt;extend&amp;gt;&amp;gt;" style="html=1;verticalAlign=bottom;labelBackgroundColor=none;endArrow=open;endFill=0;dashed=1;rounded=0;exitX=0.5;exitY=1;exitDx=0;exitDy=0;" edge="1" parent="1" source="rftGJOELewJcGDMippSY-7" target="rftGJOELewJcGDMippSY-4">
          <mxGeometry width="160" relative="1" as="geometry">
            <mxPoint x="430" y="380" as="sourcePoint" />
            <mxPoint x="590" y="380" as="targetPoint" />
          </mxGeometry>
        </mxCell>
        <mxCell id="rftGJOELewJcGDMippSY-30" value="&amp;lt;&amp;lt;extend&amp;gt;&amp;gt;" style="html=1;verticalAlign=bottom;labelBackgroundColor=none;endArrow=open;endFill=0;dashed=1;rounded=0;exitX=0.311;exitY=1.007;exitDx=0;exitDy=0;exitPerimeter=0;" edge="1" parent="1" source="rftGJOELewJcGDMippSY-9" target="rftGJOELewJcGDMippSY-4">
          <mxGeometry width="160" relative="1" as="geometry">
            <mxPoint x="430" y="380" as="sourcePoint" />
            <mxPoint x="590" y="380" as="targetPoint" />
          </mxGeometry>
        </mxCell>
        <mxCell id="rftGJOELewJcGDMippSY-34" value="&amp;lt;&amp;lt;include&amp;gt;&amp;gt;" style="html=1;verticalAlign=bottom;labelBackgroundColor=none;endArrow=open;endFill=0;dashed=1;rounded=0;" edge="1" parent="1" source="rftGJOELewJcGDMippSY-4" target="rftGJOELewJcGDMippSY-19">
          <mxGeometry width="160" relative="1" as="geometry">
            <mxPoint x="480" y="450" as="sourcePoint" />
            <mxPoint x="640" y="450" as="targetPoint" />
          </mxGeometry>
        </mxCell>
        <mxCell id="rftGJOELewJcGDMippSY-35" value="&amp;lt;&amp;lt;include&amp;gt;&amp;gt;" style="html=1;verticalAlign=bottom;labelBackgroundColor=none;endArrow=open;endFill=0;dashed=1;rounded=0;entryX=0.5;entryY=0;entryDx=0;entryDy=0;" edge="1" parent="1" source="rftGJOELewJcGDMippSY-10" target="rftGJOELewJcGDMippSY-19">
          <mxGeometry width="160" relative="1" as="geometry">
            <mxPoint x="480" y="450" as="sourcePoint" />
            <mxPoint x="640" y="450" as="targetPoint" />
          </mxGeometry>
        </mxCell>
        <mxCell id="rftGJOELewJcGDMippSY-36" value="&amp;lt;&amp;lt;include&amp;gt;&amp;gt;" style="html=1;verticalAlign=bottom;labelBackgroundColor=none;endArrow=open;endFill=0;dashed=1;rounded=0;" edge="1" parent="1" source="rftGJOELewJcGDMippSY-13" target="rftGJOELewJcGDMippSY-19">
          <mxGeometry width="160" relative="1" as="geometry">
            <mxPoint x="480" y="570" as="sourcePoint" />
            <mxPoint x="640" y="570" as="targetPoint" />
          </mxGeometry>
        </mxCell>
        <mxCell id="rftGJOELewJcGDMippSY-37" value="&amp;lt;&amp;lt;include&amp;gt;&amp;gt;" style="html=1;verticalAlign=bottom;labelBackgroundColor=none;endArrow=open;endFill=0;dashed=1;rounded=0;" edge="1" parent="1" source="rftGJOELewJcGDMippSY-17" target="rftGJOELewJcGDMippSY-19">
          <mxGeometry width="160" relative="1" as="geometry">
            <mxPoint x="480" y="570" as="sourcePoint" />
            <mxPoint x="640" y="570" as="targetPoint" />
          </mxGeometry>
        </mxCell>
        <mxCell id="rftGJOELewJcGDMippSY-38" style="rounded=0;orthogonalLoop=1;jettySize=auto;html=1;endArrow=none;endFill=0;" edge="1" parent="1" source="rftGJOELewJcGDMippSY-3" target="rftGJOELewJcGDMippSY-4">
          <mxGeometry relative="1" as="geometry" />
        </mxCell>
        <mxCell id="rftGJOELewJcGDMippSY-40" style="rounded=0;orthogonalLoop=1;jettySize=auto;html=1;entryX=0.029;entryY=0.691;entryDx=0;entryDy=0;entryPerimeter=0;endArrow=none;endFill=0;" edge="1" parent="1" source="rftGJOELewJcGDMippSY-3" target="rftGJOELewJcGDMippSY-10">
          <mxGeometry relative="1" as="geometry" />
        </mxCell>
        <mxCell id="rftGJOELewJcGDMippSY-48" value="&amp;lt;&amp;lt;extend&amp;gt;&amp;gt;" style="html=1;verticalAlign=bottom;labelBackgroundColor=none;endArrow=open;endFill=0;dashed=1;rounded=0;" edge="1" parent="1" source="rftGJOELewJcGDMippSY-14" target="rftGJOELewJcGDMippSY-13">
          <mxGeometry width="160" relative="1" as="geometry">
            <mxPoint x="400" y="520" as="sourcePoint" />
            <mxPoint x="560" y="520" as="targetPoint" />
          </mxGeometry>
        </mxCell>
        <mxCell id="rftGJOELewJcGDMippSY-65" value="3.2. Sửa bảng ca làm việc" style="ellipse;whiteSpace=wrap;html=1;fillColor=#fad9d5;strokeColor=#ae4132;" vertex="1" parent="1">
          <mxGeometry x="385" y="800" width="100" height="60" as="geometry" />
        </mxCell>
        <mxCell id="rftGJOELewJcGDMippSY-67" value="&amp;lt;&amp;lt;extend&amp;gt;&amp;gt;" style="html=1;verticalAlign=bottom;labelBackgroundColor=none;endArrow=open;endFill=0;dashed=1;rounded=0;" edge="1" parent="1" source="rftGJOELewJcGDMippSY-65" target="rftGJOELewJcGDMippSY-13">
          <mxGeometry width="160" relative="1" as="geometry">
            <mxPoint x="250" y="690" as="sourcePoint" />
            <mxPoint x="440" y="710" as="targetPoint" />
          </mxGeometry>
        </mxCell>
        <mxCell id="rftGJOELewJcGDMippSY-68" value="3.3. Xóa ca làm việc" style="ellipse;whiteSpace=wrap;html=1;" vertex="1" parent="1">
          <mxGeometry x="510" y="740" width="90" height="50" as="geometry" />
        </mxCell>
        <mxCell id="rftGJOELewJcGDMippSY-69" value="&amp;lt;&amp;lt;extend&amp;gt;&amp;gt;" style="html=1;verticalAlign=bottom;labelBackgroundColor=none;endArrow=open;endFill=0;dashed=1;rounded=0;exitX=0.004;exitY=0.332;exitDx=0;exitDy=0;exitPerimeter=0;" edge="1" parent="1" source="rftGJOELewJcGDMippSY-68" target="rftGJOELewJcGDMippSY-13">
          <mxGeometry width="160" relative="1" as="geometry">
            <mxPoint x="510" y="570" as="sourcePoint" />
            <mxPoint x="670" y="570" as="targetPoint" />
          </mxGeometry>
        </mxCell>
        <mxCell id="PYME9-YwgCqkn6Uz7oa7-1" value="&lt;font style=&quot;vertical-align: inherit;&quot;&gt;&lt;font style=&quot;vertical-align: inherit;&quot;&gt;4.1. Hiển thị danh sách bảng lương&lt;/font&gt;&lt;/font&gt;" style="ellipse;whiteSpace=wrap;html=1;fillColor=#fad9d5;strokeColor=#ae4132;" vertex="1" parent="1">
          <mxGeometry x="710" y="850" width="110" height="50" as="geometry" />
        </mxCell>
        <mxCell id="PYME9-YwgCqkn6Uz7oa7-2" value="4.2. Quản lý công thức và từ khóa" style="ellipse;whiteSpace=wrap;html=1;fillColor=#fad9d5;strokeColor=#ae4132;" vertex="1" parent="1">
          <mxGeometry x="850" y="850" width="110" height="60" as="geometry" />
        </mxCell>
        <mxCell id="PYME9-YwgCqkn6Uz7oa7-3" value="&amp;lt;&amp;lt;extend&amp;gt;&amp;gt;" style="html=1;verticalAlign=bottom;labelBackgroundColor=none;endArrow=open;endFill=0;dashed=1;rounded=0;exitX=0.422;exitY=0.02;exitDx=0;exitDy=0;exitPerimeter=0;" edge="1" parent="1" source="PYME9-YwgCqkn6Uz7oa7-1" target="rftGJOELewJcGDMippSY-17">
          <mxGeometry width="160" relative="1" as="geometry">
            <mxPoint x="881" y="768" as="sourcePoint" />
            <mxPoint x="1030" y="650" as="targetPoint" />
          </mxGeometry>
        </mxCell>
        <mxCell id="PYME9-YwgCqkn6Uz7oa7-4" value="&amp;lt;&amp;lt;extend&amp;gt;&amp;gt;" style="html=1;verticalAlign=bottom;labelBackgroundColor=none;endArrow=open;endFill=0;dashed=1;rounded=0;exitX=0.5;exitY=0;exitDx=0;exitDy=0;" edge="1" parent="1" source="PYME9-YwgCqkn6Uz7oa7-2" target="rftGJOELewJcGDMippSY-17">
          <mxGeometry width="160" relative="1" as="geometry">
            <mxPoint x="960" y="820" as="sourcePoint" />
            <mxPoint x="1030" y="650" as="targetPoint" />
          </mxGeometry>
        </mxCell>
        <mxCell id="PYME9-YwgCqkn6Uz7oa7-5" value="&lt;font style=&quot;vertical-align: inherit;&quot;&gt;&lt;font style=&quot;vertical-align: inherit;&quot;&gt;2.1. Hiển thị danh sách chấm công&lt;/font&gt;&lt;/font&gt;" style="ellipse;whiteSpace=wrap;html=1;fillColor=#fad9d5;strokeColor=#ae4132;" vertex="1" parent="1">
          <mxGeometry x="820" y="140" width="100" height="50" as="geometry" />
        </mxCell>
        <mxCell id="PYME9-YwgCqkn6Uz7oa7-6" value="&amp;lt;&amp;lt;extend&amp;gt;&amp;gt;" style="html=1;verticalAlign=bottom;labelBackgroundColor=none;endArrow=open;endFill=0;dashed=1;rounded=0;exitX=0.5;exitY=1;exitDx=0;exitDy=0;" edge="1" parent="1" source="PYME9-YwgCqkn6Uz7oa7-5" target="rftGJOELewJcGDMippSY-10">
          <mxGeometry width="160" relative="1" as="geometry">
            <mxPoint x="850" y="340" as="sourcePoint" />
            <mxPoint x="1010" y="340" as="targetPoint" />
          </mxGeometry>
        </mxCell>
        <mxCell id="PYME9-YwgCqkn6Uz7oa7-7" value="2.2. Cập nhật bảng chấm công" style="ellipse;whiteSpace=wrap;html=1;fillColor=#fad9d5;strokeColor=#ae4132;" vertex="1" parent="1">
          <mxGeometry x="970" y="170" width="105" height="50" as="geometry" />
        </mxCell>
        <mxCell id="PYME9-YwgCqkn6Uz7oa7-8" value="&lt;font style=&quot;vertical-align: inherit;&quot;&gt;&lt;font style=&quot;vertical-align: inherit;&quot;&gt;2.3. Chỉnh sửa bảng chấm công&lt;/font&gt;&lt;/font&gt;" style="ellipse;whiteSpace=wrap;html=1;fillColor=#fad9d5;strokeColor=#ae4132;" vertex="1" parent="1">
          <mxGeometry x="1040" y="260" width="100" height="50" as="geometry" />
        </mxCell>
        <mxCell id="PYME9-YwgCqkn6Uz7oa7-12" value="&amp;lt;&amp;lt;extend&amp;gt;&amp;gt;" style="html=1;verticalAlign=bottom;labelBackgroundColor=none;endArrow=open;endFill=0;dashed=1;rounded=0;exitX=0;exitY=0.5;exitDx=0;exitDy=0;" edge="1" parent="1" source="PYME9-YwgCqkn6Uz7oa7-7" target="rftGJOELewJcGDMippSY-10">
          <mxGeometry width="160" relative="1" as="geometry">
            <mxPoint x="800" y="300" as="sourcePoint" />
            <mxPoint x="960" y="300" as="targetPoint" />
          </mxGeometry>
        </mxCell>
        <mxCell id="PYME9-YwgCqkn6Uz7oa7-13" value="&amp;lt;&amp;lt;extend&amp;gt;&amp;gt;" style="html=1;verticalAlign=bottom;labelBackgroundColor=none;endArrow=open;endFill=0;dashed=1;rounded=0;" edge="1" parent="1" source="PYME9-YwgCqkn6Uz7oa7-8" target="rftGJOELewJcGDMippSY-10">
          <mxGeometry width="160" relative="1" as="geometry">
            <mxPoint x="800" y="300" as="sourcePoint" />
            <mxPoint x="960" y="300" as="targetPoint" />
          </mxGeometry>
        </mxCell>
        <mxCell id="GVVNuaXJNj663tCN8d78-2" value="&lt;font style=&quot;vertical-align: inherit;&quot;&gt;&lt;font style=&quot;vertical-align: inherit;&quot;&gt;4.3. Cập nhật bảng lương&lt;/font&gt;&lt;/font&gt;" style="ellipse;whiteSpace=wrap;html=1;fillColor=#fad9d5;strokeColor=#ae4132;" vertex="1" parent="1">
          <mxGeometry x="990" y="840" width="110" height="60" as="geometry" />
        </mxCell>
        <mxCell id="HA47N7Z86FyZ1VQ9cYVh-6" value="&amp;lt;&amp;lt;extend&amp;gt;&amp;gt;" style="html=1;verticalAlign=bottom;labelBackgroundColor=none;endArrow=open;endFill=0;dashed=1;rounded=0;exitX=0;exitY=0;exitDx=0;exitDy=0;entryX=1;entryY=1;entryDx=0;entryDy=0;" edge="1" parent="1" source="GVVNuaXJNj663tCN8d78-2" target="rftGJOELewJcGDMippSY-17">
          <mxGeometry width="160" relative="1" as="geometry">
            <mxPoint x="550" y="590" as="sourcePoint" />
            <mxPoint x="710" y="590" as="targetPoint" />
          </mxGeometry>
        </mxCell>
        <mxCell id="Y9leutwkp4kMqjMhnxCo-1" value="5.3 Đăng xuất" style="ellipse;whiteSpace=wrap;html=1;fillColor=#fad9d5;strokeColor=#ae4132;" vertex="1" parent="1">
          <mxGeometry x="1100" y="490" width="110" height="50" as="geometry" />
        </mxCell>
        <mxCell id="SviylCHCDP7IlEOSbGpC-2" value="5. Quản lý tài khoản&amp;nbsp;" style="ellipse;whiteSpace=wrap;html=1;fillColor=#C4DEFF;" vertex="1" parent="1">
          <mxGeometry x="880" y="560" width="140" height="70" as="geometry" />
        </mxCell>
        <mxCell id="hGXEyBRSAWUxRxCDr8M2-1" value="5.1. Xoá tài khoản" style="ellipse;whiteSpace=wrap;html=1;fillColor=#fad9d5;strokeColor=#ae4132;" vertex="1" parent="1">
          <mxGeometry x="1070" y="650" width="110" height="60" as="geometry" />
        </mxCell>
        <mxCell id="hGXEyBRSAWUxRxCDr8M2-2" value="5.2. Thay đổi mật khẩu" style="ellipse;whiteSpace=wrap;html=1;fillColor=#fad9d5;strokeColor=#ae4132;" vertex="1" parent="1">
          <mxGeometry x="1090" y="560" width="110" height="60" as="geometry" />
        </mxCell>
        <mxCell id="SviylCHCDP7IlEOSbGpC-6" value="&amp;lt;&amp;lt;extend&amp;gt;&amp;gt;" style="html=1;verticalAlign=bottom;labelBackgroundColor=none;endArrow=open;endFill=0;dashed=1;rounded=0;" edge="1" parent="1" source="hGXEyBRSAWUxRxCDr8M2-1" target="SviylCHCDP7IlEOSbGpC-2">
          <mxGeometry width="160" relative="1" as="geometry">
            <mxPoint x="850" y="770" as="sourcePoint" />
            <mxPoint x="1010" y="770" as="targetPoint" />
          </mxGeometry>
        </mxCell>
        <mxCell id="SviylCHCDP7IlEOSbGpC-7" value="&amp;lt;&amp;lt;extend&amp;gt;&amp;gt;" style="html=1;verticalAlign=bottom;labelBackgroundColor=none;endArrow=open;endFill=0;dashed=1;rounded=0;exitX=0;exitY=0.5;exitDx=0;exitDy=0;" edge="1" parent="1" source="hGXEyBRSAWUxRxCDr8M2-2" target="SviylCHCDP7IlEOSbGpC-2">
          <mxGeometry width="160" relative="1" as="geometry">
            <mxPoint x="850" y="770" as="sourcePoint" />
            <mxPoint x="1010" y="770" as="targetPoint" />
          </mxGeometry>
        </mxCell>
        <mxCell id="SviylCHCDP7IlEOSbGpC-8" value="&amp;lt;&amp;lt;extend&amp;gt;&amp;gt;" style="html=1;verticalAlign=bottom;labelBackgroundColor=none;endArrow=open;endFill=0;dashed=1;rounded=0;exitX=0;exitY=0.5;exitDx=0;exitDy=0;" edge="1" parent="1" source="Y9leutwkp4kMqjMhnxCo-1" target="SviylCHCDP7IlEOSbGpC-2">
          <mxGeometry width="160" relative="1" as="geometry">
            <mxPoint x="850" y="770" as="sourcePoint" />
            <mxPoint x="1010" y="770" as="targetPoint" />
          </mxGeometry>
        </mxCell>
      </root>
    </mxGraphModel>
  </diagram>
</mxfile>
